<svg width="20" height="26" viewBox="0 0 20 26" fill="none" xmlns="http://www.w3.org/2000/svg">
<path d="M10.1667 2C10.9444 5.11111 12.5 7.63889 14.8333 9.58333C17.1667 11.5278 18.3333 13.6667 18.3333 16C18.3333 18.1659 17.4729 20.2432 15.9414 21.7747C14.4098 23.3063 12.3326 24.1667 10.1667 24.1667C8.00073 24.1667 5.92351 23.3063 4.39196 21.7747C2.86041 20.2432 2 18.1659 2 16C2 14.7378 2.40937 13.5097 3.16667 12.5C3.16667 13.2735 3.47396 14.0154 4.02094 14.5624C4.56792 15.1094 5.30979 15.4167 6.08333 15.4167C6.85688 15.4167 7.59875 15.1094 8.14573 14.5624C8.69271 14.0154 9 13.2735 9 12.5C9 10.1667 7.25 9 7.25 6.66667C7.25 5.11111 8.22222 3.55556 10.1667 2Z" stroke="#F0FFFA" stroke-width="2.33333" stroke-linecap="round" stroke-linejoin="round"/>
</svg>
