<svg width="21" height="29" viewBox="0 0 21 29" fill="none" xmlns="http://www.w3.org/2000/svg">
<path fill-rule="evenodd" clip-rule="evenodd" d="M7.53573 0.0336914C6.97214 0.0336914 6.43164 0.257575 6.03312 0.65609C5.63461 1.0546 5.41073 1.59511 5.41073 2.15869H2.57739C2.01381 2.15869 1.47331 2.38257 1.07479 2.78109C0.676276 3.1796 0.452393 3.72011 0.452393 4.28369V12.0676H5.8591L8.25893 7.80057L9.75848 13.0493L11.5931 10.6906H15.4818C15.6697 10.6906 15.8498 10.7652 15.9827 10.898C16.1155 11.0309 16.1901 11.211 16.1901 11.3989C16.1901 11.5868 16.1155 11.7669 15.9827 11.8998C15.8498 12.0326 15.6697 12.1072 15.4818 12.1072H12.2865L9.16277 16.1221L7.82898 11.4542L6.68714 13.4842H0.452393V26.242C0.452393 26.8056 0.676276 27.3461 1.07479 27.7446C1.47331 28.1431 2.01381 28.367 2.57739 28.367H18.1607C18.7243 28.367 19.2648 28.1431 19.6633 27.7446C20.0618 27.3461 20.2857 26.8056 20.2857 26.242V4.28369C20.2857 3.72011 20.0618 3.1796 19.6633 2.78109C19.2648 2.38257 18.7243 2.15869 18.1607 2.15869H15.3274C15.3274 1.59511 15.1035 1.0546 14.705 0.65609C14.3065 0.257575 13.766 0.0336914 13.2024 0.0336914H7.53573ZM6.82739 2.15869C6.82739 1.97083 6.90202 1.79066 7.03486 1.65782C7.1677 1.52499 7.34786 1.45036 7.53573 1.45036H13.2024C13.3903 1.45036 13.5704 1.52499 13.7033 1.65782C13.8361 1.79066 13.9107 1.97083 13.9107 2.15869V3.57536C13.9107 3.76322 13.8361 3.94339 13.7033 4.07623C13.5704 4.20906 13.3903 4.28369 13.2024 4.28369H7.53573C7.34786 4.28369 7.1677 4.20906 7.03486 4.07623C6.90202 3.94339 6.82739 3.76322 6.82739 3.57536V2.15869ZM4.70239 19.1587C4.70239 18.9708 4.77702 18.7907 4.90986 18.6578C5.0427 18.525 5.22286 18.4504 5.41073 18.4504H15.3274C15.5153 18.4504 15.6954 18.525 15.8283 18.6578C15.9611 18.7907 16.0357 18.9708 16.0357 19.1587C16.0357 19.3466 15.9611 19.5267 15.8283 19.6596C15.6954 19.7924 15.5153 19.867 15.3274 19.867H5.41073C5.22286 19.867 5.0427 19.7924 4.90986 19.6596C4.77702 19.5267 4.70239 19.3466 4.70239 19.1587ZM5.41073 22.7004C5.22286 22.7004 5.0427 22.775 4.90986 22.9078C4.77702 23.0407 4.70239 23.2208 4.70239 23.4087C4.70239 23.5966 4.77702 23.7767 4.90986 23.9096C5.0427 24.0424 5.22286 24.117 5.41073 24.117H9.66073C9.84859 24.117 10.0288 24.0424 10.1616 23.9096C10.2944 23.7767 10.3691 23.5966 10.3691 23.4087C10.3691 23.2208 10.2944 23.0407 10.1616 22.9078C10.0288 22.775 9.84859 22.7004 9.66073 22.7004H5.41073Z" fill="#F0FFFA"/>
</svg>
