<svg width="20" height="30" viewBox="0 0 20 30" fill="none" xmlns="http://www.w3.org/2000/svg">
<path d="M14.2499 0.833344C14.6256 0.833344 14.986 0.982599 15.2517 1.24828C15.5173 1.51395 15.6666 1.87429 15.6666 2.25001V5.26184C18.1118 5.89226 19.9166 8.10934 19.9166 10.75V19.25C19.9169 20.5065 19.4996 21.7275 18.7303 22.721C17.9609 23.7145 16.8832 24.424 15.6666 24.7382V27.75C15.6666 28.1257 15.5173 28.4861 15.2517 28.7517C14.986 29.0174 14.6256 29.1667 14.2499 29.1667H5.74992C5.3742 29.1667 5.01386 29.0174 4.74818 28.7517C4.48251 28.4861 4.33325 28.1257 4.33325 27.75V24.7382C3.11663 24.424 2.03892 23.7145 1.26958 22.721C0.500251 21.7275 0.0829328 20.5065 0.0832521 19.25V10.75C0.0829328 9.49349 0.500251 8.2725 1.26958 7.27903C2.03892 6.28556 3.11663 5.57597 4.33325 5.26184V2.25001C4.33325 1.87429 4.48251 1.51395 4.74818 1.24828C5.01386 0.982599 5.3742 0.833344 5.74992 0.833344H14.2499ZM12.8333 24.9167H7.16659V26.3333H12.8333V24.9167ZM12.8333 3.66668H7.16659V5.08334H12.8333V3.66668Z" fill="#042222"/>
</svg>
