<svg width="27" height="22" viewBox="0 0 27 22" fill="none" xmlns="http://www.w3.org/2000/svg">
<path d="M25.3692 9.86698H20.1159C20.023 9.85468 19.9288 9.85468 19.8359 9.86698H19.6092C19.5387 9.90532 19.4717 9.94994 19.4092 10.0003C19.3355 10.0501 19.2643 10.1035 19.1959 10.1603C19.1514 10.2148 19.1112 10.2728 19.0759 10.3337C19.0147 10.4176 18.9611 10.5068 18.9159 10.6003L16.7826 16.4803L11.2226 1.41365C11.1291 1.15625 10.9587 0.933856 10.7345 0.776692C10.5102 0.619528 10.2431 0.535217 9.96922 0.535217C9.69539 0.535217 9.4282 0.619528 9.20396 0.776692C8.97972 0.933856 8.80931 1.15625 8.71589 1.41365L5.63589 9.86698H1.36922C1.0156 9.86698 0.676461 10.0075 0.426413 10.2575C0.176364 10.5076 0.0358887 10.8467 0.0358887 11.2003C0.0358887 11.5539 0.176364 11.8931 0.426413 12.1431C0.676461 12.3932 1.0156 12.5337 1.36922 12.5337H7.10256C7.17771 12.496 7.24914 12.4514 7.31589 12.4003C7.38962 12.3506 7.46082 12.2972 7.52922 12.2403L7.64922 12.067C7.71277 11.9846 7.76647 11.8951 7.80922 11.8003L9.96922 5.76032L15.5159 20.987C15.6091 21.2447 15.7794 21.4674 16.0036 21.6249C16.2279 21.7823 16.4952 21.8669 16.7692 21.867C17.0432 21.8669 17.3106 21.7823 17.5348 21.6249C17.7591 21.4674 17.9294 21.2447 18.0226 20.987L21.0892 12.5337H25.3692C25.7228 12.5337 26.062 12.3932 26.312 12.1431C26.5621 11.8931 26.7026 11.5539 26.7026 11.2003C26.7026 10.8467 26.5621 10.5076 26.312 10.2575C26.062 10.0075 25.7228 9.86698 25.3692 9.86698Z" fill="#F0FFFA"/>
</svg>
