<svg width="21" height="32" viewBox="0 0 21 32" fill="none" xmlns="http://www.w3.org/2000/svg">
<path d="M10.3691 6.51282C11.1399 6.51282 11.8791 6.20662 12.4242 5.6616C12.9692 5.11657 13.2754 4.37735 13.2754 3.60657C13.2754 2.83578 12.9692 2.09657 12.4242 1.55154C11.8791 1.00651 11.1399 0.700317 10.3691 0.700317C9.59836 0.700317 8.85914 1.00651 8.31411 1.55154C7.76908 2.09657 7.46289 2.83578 7.46289 3.60657C7.46289 4.37735 7.76908 5.11657 8.31411 5.6616C8.85914 6.20662 9.59836 6.51282 10.3691 6.51282Z" fill="#F0FFFA"/>
<path d="M6.35845 13.6894L4.71933 30.0632C4.66717 30.4545 4.77259 30.8505 5.0124 31.164C5.25222 31.4776 5.60677 31.6831 5.99808 31.7352C6.38938 31.7874 6.78537 31.682 7.09894 31.4422C7.41252 31.2023 7.61798 30.8478 7.67014 30.4565L9.23951 21.0305C9.28269 20.7623 9.42 20.5182 9.62681 20.3421C9.83362 20.1659 10.0964 20.0691 10.3681 20.0691C10.6398 20.0691 10.9026 20.1659 11.1094 20.3421C11.3162 20.5182 11.4535 20.7623 11.4967 21.0305L13.0661 30.4565C13.1182 30.8478 13.3237 31.2023 13.6373 31.4422C13.9508 31.682 14.3468 31.7874 14.7381 31.7352C15.1294 31.6831 15.484 31.4776 15.7238 31.164C15.9636 30.8505 16.069 30.4545 16.0169 30.0632L14.3797 13.6894C14.3381 13.2632 14.3913 12.833 14.5353 12.4298C14.6793 12.0265 14.9107 11.66 15.2128 11.3566L20.0566 5.12561C20.2956 4.80572 20.4013 4.40559 20.3513 4.00939C20.3013 3.61319 20.0996 3.25182 19.7886 3.00132C19.4776 2.75081 19.0816 2.63071 18.6838 2.66627C18.2861 2.70183 17.9176 2.89028 17.656 3.19198L13.5349 8.14036C13.3714 8.35183 13.1489 8.51024 12.8956 8.59567C12.4499 8.73904 11.6071 8.93667 10.3691 8.93667C9.12908 8.93667 8.2882 8.73904 7.84064 8.59567C7.588 8.5099 7.36627 8.35152 7.2032 8.14036L3.08214 3.19198C2.82301 2.88189 2.45252 2.68589 2.05037 2.64615C1.64822 2.60641 1.24654 2.7261 0.931724 2.97947C0.616912 3.23285 0.414124 3.59966 0.366981 4.00101C0.319838 4.40236 0.432107 4.80618 0.679638 5.12561L5.52339 11.3566C6.13758 11.9689 6.44564 12.8252 6.35845 13.6894Z" fill="#F0FFFA"/>
</svg>
