<svg width="25" height="26" viewBox="0 0 25 26" fill="none" xmlns="http://www.w3.org/2000/svg">
<path d="M13 23C12.6458 23 12.3492 22.88 12.11 22.64C11.8708 22.4 11.7508 22.1034 11.75 21.75V16.75C11.75 16.3959 11.87 16.0992 12.11 15.86C12.35 15.6209 12.6467 15.5009 13 15.5H16.125C16.4792 15.5 16.7763 15.62 17.0163 15.86C17.2563 16.1 17.3758 16.3967 17.375 16.75V21.75C17.375 22.1042 17.255 22.4013 17.015 22.6413C16.775 22.8813 16.4783 23.0009 16.125 23H13ZM13.625 21.125H15.5V17.375H13.625V21.125ZM20.5 25.5C20.1458 25.5 19.8492 25.38 19.61 25.14C19.3708 24.9 19.2508 24.6034 19.25 24.25V22.0625C19.25 21.7084 19.37 21.4117 19.61 21.1725C19.85 20.9334 20.1467 20.8134 20.5 20.8125H23V19.875H20.1875C19.9167 19.875 19.6929 19.7863 19.5162 19.6088C19.3396 19.4313 19.2508 19.2075 19.25 18.9375C19.2492 18.6675 19.3379 18.4438 19.5162 18.2663C19.6946 18.0888 19.9183 18 20.1875 18H23.625C23.9792 18 24.2762 18.12 24.5162 18.36C24.7562 18.6 24.8758 18.8967 24.875 19.25V21.4375C24.875 21.7917 24.755 22.0888 24.515 22.3288C24.275 22.5688 23.9783 22.6884 23.625 22.6875H21.125V23.625H23.9375C24.2083 23.625 24.4325 23.7138 24.61 23.8913C24.7875 24.0688 24.8758 24.2925 24.875 24.5625C24.8742 24.8325 24.7854 25.0567 24.6088 25.235C24.4321 25.4134 24.2083 25.5017 23.9375 25.5H20.5ZM10.5 0.93752C10.6667 0.93752 10.8229 0.96377 10.9688 1.01627C11.1146 1.06877 11.2396 1.14669 11.3438 1.25002C12.9688 2.68752 14.5262 4.19794 16.0163 5.78127C17.5063 7.3646 18.6883 9.16669 19.5625 11.1875C19.75 11.6042 19.7083 12.0104 19.4375 12.4063C19.1667 12.8021 18.7917 13 18.3125 13H11.75C11.0625 13 10.4742 13.245 9.985 13.735C9.49583 14.225 9.25083 14.8134 9.25 15.5V23.875C9.25 24.2292 9.11458 24.5367 8.84375 24.7975C8.57292 25.0584 8.26042 25.1884 7.90625 25.1875C5.44792 25.1875 3.59917 24.2029 2.36 22.2338C1.12083 20.2646 0.500833 17.9367 0.5 15.25C0.5 12.3334 1.47417 9.76044 3.4225 7.53127C5.37083 5.3021 7.44875 3.20835 9.65625 1.25002C9.76042 1.14585 9.88542 1.06752 10.0312 1.01502C10.1771 0.96252 10.3333 0.936686 10.5 0.93752Z" fill="#F0FFFA"/>
</svg>
