<svg width="23" height="30" viewBox="0 0 23 30" fill="none" xmlns="http://www.w3.org/2000/svg">
<path d="M16.005 7.37915C16.866 7.37915 17.6918 7.03709 18.3007 6.42823C18.9095 5.81937 19.2516 4.99357 19.2516 4.13251C19.2516 3.27144 18.9095 2.44565 18.3007 1.83678C17.6918 1.22792 16.866 0.885864 16.005 0.885864C15.1439 0.885864 14.3181 1.22792 13.7092 1.83678C13.1004 2.44565 12.7583 3.27144 12.7583 4.13251C12.7583 4.99357 13.1004 5.81937 13.7092 6.42823C14.3181 7.03709 15.1439 7.37915 16.005 7.37915ZM9.48282 10.4685C8.58314 10.6922 7.96916 11.0284 7.47351 11.4454C6.73039 12.0716 6.13012 12.9749 5.31918 14.3948C5.12927 14.7271 4.81514 14.9703 4.44589 15.0709C4.07665 15.1716 3.68254 15.1215 3.35027 14.9316C3.018 14.7417 2.77477 14.4275 2.67411 14.0583C2.57344 13.689 2.62358 13.2949 2.81349 12.9627C3.62082 11.5507 4.43681 10.2297 5.61498 9.23839C6.84438 8.20235 8.34938 7.61652 10.3789 7.39069C11.2273 7.2969 12.1609 7.31566 13.0361 7.70598C13.9545 8.1165 14.6255 8.85168 15.0829 9.83433C15.6991 11.1568 16.1572 11.9439 16.5237 12.4006C16.7005 12.6192 16.8238 12.721 16.8938 12.7664C16.9494 12.8025 16.9732 12.8054 16.9818 12.8068C17.0446 12.814 17.2488 12.8068 17.8462 12.542C18.1066 12.4266 18.3909 12.2881 18.7386 12.1185L18.8216 12.0781C19.2469 11.8683 19.676 11.6662 20.1087 11.4721C20.4581 11.3187 20.8539 11.31 21.2097 11.4477C21.5655 11.5854 21.8523 11.8585 22.0073 12.2071C22.1623 12.5557 22.1729 12.9516 22.0368 13.308C21.9007 13.6644 21.629 13.9525 21.2811 14.1091C20.8801 14.289 20.4825 14.4764 20.0885 14.6711L19.994 14.7173C19.6614 14.8796 19.3266 15.0434 19.0128 15.1819C18.3635 15.4691 17.5338 15.7807 16.6341 15.6718C15.6846 15.5564 14.9531 15.0203 14.3506 14.301L12.3788 18.1053L15.106 21.6536C15.2686 21.8653 15.3693 22.1181 15.3968 22.3837L15.997 28.1526C16.0199 28.3427 16.0047 28.5354 15.9524 28.7195C15.9 28.9037 15.8116 29.0756 15.6921 29.2252C15.5727 29.3748 15.4247 29.4992 15.2567 29.591C15.0887 29.6829 14.9042 29.7404 14.7138 29.7602C14.5234 29.78 14.3309 29.7617 14.1476 29.7064C13.9643 29.6511 13.7939 29.5599 13.6462 29.4381C13.4985 29.3163 13.3766 29.1663 13.2874 28.9969C13.1983 28.8275 13.1438 28.642 13.127 28.4513L12.5686 23.0886L10.9121 20.9328L10.8976 20.9595L10.837 20.8354L7.77653 16.8529C7.62608 16.6571 7.52837 16.426 7.49275 16.1817C7.45713 15.9374 7.48478 15.6881 7.57307 15.4575L9.48282 10.4685Z" fill="#F1F7F7"/>
<path d="M7.29829 18.9278L6.23628 21.7848L2.05172 21.453C1.86147 21.4353 1.6696 21.4556 1.48725 21.5127C1.30491 21.5697 1.13571 21.6625 0.989488 21.7855C0.843263 21.9084 0.722921 22.0592 0.635445 22.2291C0.547969 22.399 0.495101 22.5845 0.47991 22.775C0.464718 22.9655 0.487506 23.1571 0.54695 23.3386C0.606394 23.5202 0.70131 23.6882 0.826191 23.8328C0.951071 23.9774 1.10343 24.0958 1.27442 24.1811C1.44542 24.2663 1.63164 24.3168 1.82229 24.3295L7.09484 24.7479C7.40775 24.7728 7.72025 24.695 7.98495 24.5263C8.24964 24.3575 8.45209 24.1071 8.5616 23.8129L9.37326 21.6283L7.29829 18.9278Z" fill="#F1F7F7"/>
</svg>
