<svg width="37" height="37" viewBox="0 0 37 37" fill="none" xmlns="http://www.w3.org/2000/svg">
<g clip-path="url(#clip0_18_1899)">
<path d="M6.70759 22.8516L6.98835 19.5226C7.23843 16.5573 5.91571 15.0371 6.25258 11.5438C6.61541 7.74281 9.04448 3.32721 13.2546 3.68229C15.8703 3.90288 16.5391 6.49491 16.3386 8.87275C15.9717 13.2228 12.8735 16.5536 12.5172 20.7778L12.3025 23.3235C12.2399 24.0654 11.8852 24.7521 11.3163 25.2325C10.7474 25.7128 10.011 25.9476 9.26911 25.885C8.52718 25.8224 7.8405 25.4677 7.36012 24.8988C6.87974 24.3299 6.64502 23.5935 6.70759 22.8516Z" stroke="#F0FFFA" stroke-width="2.80739" stroke-linecap="round" stroke-linejoin="round"/>
<path d="M28.6154 30.3339L28.8961 27.005C29.1462 24.0397 30.7049 22.7624 30.9578 19.2621C31.2367 15.454 29.5815 10.6939 25.3713 10.3389C22.7557 10.1183 21.6622 12.5617 21.4616 14.9395C21.0948 19.2895 23.5914 23.0922 23.2352 27.3164L23.0205 29.8621C22.9579 30.604 23.1926 31.3404 23.673 31.9093C24.1534 32.4781 24.8401 32.8329 25.582 32.8955C26.3239 32.958 27.0603 32.7233 27.6292 32.2429C28.1981 31.7625 28.5528 31.0759 28.6154 30.3339Z" stroke="#F0FFFA" stroke-width="2.80739" stroke-linecap="round" stroke-linejoin="round"/>
<path d="M23.3743 25.6659L28.9692 26.1378" stroke="#F0FFFA" stroke-width="2.80739" stroke-linecap="round" stroke-linejoin="round"/>
<path d="M7.06128 18.6553L12.6562 19.1271" stroke="#F0FFFA" stroke-width="2.80739" stroke-linecap="round" stroke-linejoin="round"/>
</g>
<defs>
<clipPath id="clip0_18_1899">
<rect width="33.6887" height="33.6887" fill="white" transform="translate(3) rotate(4.82077)"/>
</clipPath>
</defs>
</svg>
